<?xml version="1.0" standalone="no"?>
<!DOCTYPE svg PUBLIC "-//W3C//DTD SVG 1.1//EN" "http://www.w3.org/Graphics/SVG/1.1/DTD/svg11.dtd" >
<svg xmlns="http://www.w3.org/2000/svg">
<metadata>
Created by FontForge 20120731 at Fri Oct  7 16:23:10 2016
 By admin
</metadata>
<defs>
<font id="iconfont" horiz-adv-x="1024" >
  <font-face 
    font-family="iconfont"
    font-weight="500"
    font-stretch="normal"
    units-per-em="1024"
    panose-1="2 0 6 3 0 0 0 0 0 0"
    ascent="896"
    descent="-128"
    x-height="792"
    bbox="0 -212 1286 908"
    underline-thickness="50"
    underline-position="-100"
    unicode-range="U+0078-E61F"
  />
<missing-glyph horiz-adv-x="374" 
d="M34 0v682h272v-682h-272zM68 34h204v614h-204v-614z" />
    <glyph glyph-name=".notdef" horiz-adv-x="374" 
d="M34 0v682h272v-682h-272zM68 34h204v614h-204v-614z" />
    <glyph glyph-name=".null" horiz-adv-x="0" 
 />
    <glyph glyph-name="nonmarkingreturn" horiz-adv-x="341" 
 />
    <glyph glyph-name="x" unicode="x" horiz-adv-x="1001" 
d="M281 543q-27 -1 -53 -1h-83q-18 0 -36.5 -6t-32.5 -18.5t-23 -32t-9 -45.5v-76h912v41q0 16 -0.5 30t-0.5 18q0 13 -5 29t-17 29.5t-31.5 22.5t-49.5 9h-133v-97h-438v97zM955 310v-52q0 -23 0.5 -52t0.5 -58t-10.5 -47.5t-26 -30t-33 -16t-31.5 -4.5q-14 -1 -29.5 -0.5
t-29.5 0.5h-32l-45 128h-439l-44 -128h-29h-34q-20 0 -45 1q-25 0 -41 9.5t-25.5 23t-13.5 29.5t-4 30v167h911zM163 247q-12 0 -21 -8.5t-9 -21.5t9 -21.5t21 -8.5q13 0 22 8.5t9 21.5t-9 21.5t-22 8.5zM316 123q-8 -26 -14 -48q-5 -19 -10.5 -37t-7.5 -25t-3 -15t1 -14.5
t9.5 -10.5t21.5 -4h37h67h81h80h64h36q23 0 34 12t2 38q-5 13 -9.5 30.5t-9.5 34.5q-5 19 -11 39h-368zM336 498v228q0 11 2.5 23t10 21.5t20.5 15.5t34 6h188q31 0 51.5 -14.5t20.5 -52.5v-227h-327z" />
    <glyph glyph-name="uniE600" unicode="&#xe600;" 
d="M511 -211q-104 0 -198.5 40.5t-163 109t-109 163t-40.5 198.5t40.5 198.5t109 163t163 109t198.5 40.5t198.5 -40.5t163 -109t109 -163t40.5 -198.5t-40.5 -198.5t-109 -163t-163 -109t-198.5 -40.5zM511 768q-95 0 -182 -37t-149.5 -100t-99.5 -149.5t-37 -181.5
t37 -182t99.5 -149.5t149.5 -100t182 -37.5t182 37.5t149.5 100t100 149.5t37.5 182t-37.5 181.5t-100 149.5t-149.5 100t-182 37zM715 384q-41 0 -69.5 29t-28.5 69.5t28.5 69.5t69.5 29t69.5 -29t28.5 -69.5t-28.5 -69.5t-69.5 -29zM715 538q-23 0 -39.5 -16.5
t-16.5 -39.5t16.5 -39t39.5 -16t39.5 16t16.5 39t-16.5 39.5t-39.5 16.5zM588 -53q-41 0 -70 29t-29 69.5t29 69.5t69.5 29t69.5 -29t29 -69.5t-29 -69.5t-69 -29zM588 101q-24 0 -40 -16t-16 -39t16 -39.5t39.5 -16.5t39.5 16.5t16 39.5t-16 39t-39 16zM249 191
q-41 0 -69.5 29t-28.5 69.5t28.5 69.5t69 29t69.5 -29t29 -69.5t-29 -69.5t-69 -29zM249 345q-23 0 -39.5 -16t-16.5 -39t16.5 -39.5t39.5 -16.5t39 16.5t16 39.5t-16 39t-39 16zM320 303q-15 0 -20 14q-3 8 0.5 16t11.5 11l315 119q8 3 16 -0.5t11 -11.5t-0.5 -16
t-11.5 -12l-315 -119q-3 -1 -7 -1zM528 73q-6 0 -12 4l-208 144q-8 5 -9.5 13.5t3.5 16t14 9t16 -3.5l209 -144q7 -5 8.5 -13.5t-3.5 -15.5q-6 -10 -18 -10zM528 73z" />
    <glyph glyph-name="uniE601" unicode="&#xe601;" horiz-adv-x="1035" 
d="M520.5 896q-104.5 0 -199 -40.5t-163 -109t-109 -163.5t-40.5 -199t40.5 -199t109 -163.5t163 -109t199 -40.5t199 40.5t163 109t109.5 163.5t41 199t-40.5 199t-109 163.5t-163.5 109t-199.5 40.5zM488 704h65q13 0 22.5 -9.5t9.5 -22.5t-9.5 -22.5t-22.5 -9.5h-65
q-13 0 -22.5 9.5t-9.5 22.5q1 13 10 22.5t22 9.5zM699 315l-149 -172q-13 -14 -30.5 -14t-29.5 14l-150 172q-14 17 -12 41q2 12 11 20t20 8h97v160q0 13 9.5 22.5t22.5 9.5h64q13 0 22.5 -9.5t9.5 -22.5v-160h95q12 0 21 -8t10 -20q4 -24 -11 -41z" />
    <glyph glyph-name="uniE602" unicode="&#xe602;" horiz-adv-x="1065" 
d="M532 896q-104 0 -199 -40.5t-163.5 -109t-109 -163.5t-40.5 -199t40.5 -199t109 -163.5t163.5 -109t199 -40.5t199 40.5t163.5 109t109 163.5t40.5 199t-40.5 199t-109 163.5t-163.5 109t-199 40.5zM397 97h-160v161h160v-161zM397 304h-160v160h160v-160zM397 510h-160
v160h160v-160zM615 97h-160v161h160v-161zM615 304h-160v160h160v-160zM615 510h-160v160h160v-160zM827 97h-160v161h160v-161zM827 304h-160v160h160v-160zM827 510h-160v160h160v-160z" />
    <glyph glyph-name="uniE603" unicode="&#xe603;" horiz-adv-x="1099" 
d="M542 896q-101 0 -193.5 -34.5t-159.5 -93t-106.5 -139.5t-39.5 -170q0 -105 43 -194t127 -148v-219q4 -4 10 -9.5t19 -12.5t20 -2q26 15 72.5 54.5t80 70.5t33.5 32q46 -8 94 -8q101 0 193.5 34.5t159.5 93t106.5 139.5t39.5 170q0 88 -39.5 169t-106 139.5t-159 93
t-194.5 34.5zM269 360q-33 0 -56.5 25t-23.5 60t23.5 60t57 25t57 -25t23.5 -60t-23.5 -60t-57.5 -25zM542 360q-33 0 -56.5 25t-23.5 60t23.5 60t56.5 25t57 -25t24 -60t-23.5 -60t-57.5 -25zM815 360q-33 0 -56.5 25t-23.5 60t23.5 60t57 25t57 -25t23.5 -60
q-1 -35 -24.5 -60t-56.5 -25zM815 360z" />
    <glyph glyph-name="uniE604" unicode="&#xe604;" horiz-adv-x="1072" 
d="M622 631q10 8 26 10t27 -1l11 -2q-25 15 -47 16.5t-32 -3.5t-17 -12q-1 0 -3.5 1t-4.5 1q-16 2 -32 3q3 7 8 13.5t17 16t27 10.5t37 -4q-3 3 -9 6.5t-22.5 8t-31.5 3t-32 -14.5t-29 -40v0q-91 -11 -153 -80t-62 -162q0 -101 71.5 -172.5t171.5 -71.5q101 0 172.5 71.5
t71.5 172.5q0 78 -46.5 141.5t-118.5 88.5zM546 896q-104 0 -199 -40.5t-163.5 -109t-109 -163.5t-40.5 -199t40.5 -199t109 -163.5t163.5 -109t199 -40.5t199 40.5t163.5 109t109 163.5t40.5 199t-40.5 199t-109 163.5t-163.5 109t-199 40.5zM819 -3q-5 21 -15 41t-27 43
t-45.5 42.5t-64.5 29.5q-5 -4 -13.5 -11t-36 -20.5t-55 -18t-66.5 6.5t-74 43q-5 -1 -13.5 -3.5t-31 -14.5t-41.5 -28t-39 -44.5t-29 -63.5q-91 66 -144 166.5t-53 217.5q0 96 37.5 184t101 151t151 100.5t184 37.5t184 -37.5t151 -101t101 -151t37.5 -183.5
q-1 -118 -54 -219t-145 -167v0zM819 -3z" />
    <glyph glyph-name="uniE605" unicode="&#xe605;" horiz-adv-x="1145" 
d="M557 59l-239 -90q-24 -7 -38.5 3.5t-14.5 36.5l13 249l-161 195q-15 20 -9.5 37.5t28.5 23.5l247 65l140 211q14 20 33.5 20t32.5 -20l140 -211l247 -65q23 -6 28.5 -23.5t-9.5 -37.5l-161 -195l13 -249q2 -26 -13.5 -37t-39.5 -3z" />
    <glyph glyph-name="uniE606" unicode="&#xe606;" horiz-adv-x="1112" 
d="M321 -37q-20 0 -41 12q-28 21 -28 65l12 212l-136 166q-27 34 -17 69q11 36 52 48l211 55l117 180q21 36 63 36q36 0 62 -36l117 -180l211 -55q41 -11 52 -48q11 -36 -17 -69l-136 -166l12 -212q3 -42 -28 -65t-70 -7l-203 77l-204 -77q-17 -5 -29 -5zM553 125q9 0 14 -2
l210 -81l-12 222q0 18 9 27l142 172l-218 58q-16 3 -21 17l-124 189l-124 -189q-10 -14 -22 -17l-217 -58l141 -172q9 -9 9 -27l-12 -222l212 81q2 0 6 1t7 1z" />
    <glyph glyph-name="uniE607" unicode="&#xe607;" horiz-adv-x="1046" 
d="M943 54v211q0 18 -7.5 32t-18 21t-21 11.5t-17.5 5.5l-7 1v177q0 99 -42 150.5t-102 56.5q-13 75 -71.5 125.5t-135.5 50.5t-135 -49t-72 -123q-118 -26 -140 -148q-7 -36 -4 -64v-176q-21 0 -37 -8.5t-22.5 -19.5t-9.5 -22t-3 -19v-8v-202q0 -18 8 -31.5t17.5 -20
t22 -11t17.5 -5.5t7 -1q0 -26 8 -46t20 -32t27 -20.5t29.5 -11.5t26.5 -4.5t20 -1.5h8h420q30 0 54 6.5t38 16.5t24 22t14 24.5t6.5 22.5t2.5 16l-1 7q24 3 40.5 11.5t23 17.5t10 17.5t2.5 14.5v6zM524 818q44 0 78.5 -26.5t47.5 -67.5h-250q10 41 44.5 67.5t79.5 26.5z
M725 159h-22v-33q0 -14 -10 -24.5t-25 -10.5q-14 0 -24.5 10t-10.5 25v33h-317q-14 0 -24.5 9.5t-10.5 24.5t9.5 25t25.5 10h406q14 0 24.5 -9.5t10.5 -25.5q2 -14 -8 -24t-24 -10z" />
    <glyph glyph-name="uniE608" unicode="&#xe608;" 
d="M673.5 732.5q30.5 34.5 46.5 77.5t11 86q-41 -2 -86.5 -23.5t-75.5 -54.5q-30 -31 -47 -74t-11 -84q44 -3 88 17.5t74.5 55zM812 352q0 35 11.5 67.5t26 53t34.5 39t29 24.5t17 10l1 1q-23 31 -53 52.5t-59.5 31t-50 13.5t-38.5 4q-37 4 -80 -7.5t-78.5 -25.5t-52.5 -14
q-18 0 -80 23t-101 22q-70 -1 -131 -35.5t-97 -92.5q-35 -57 -43.5 -129t6.5 -141.5t42.5 -133t64.5 -112.5q22 -30 37.5 -48.5t38.5 -40t47.5 -32t50.5 -9.5q31 1 83 21.5t97 20.5q43 0 94 -20.5t87 -20.5q27 1 50.5 11t45.5 30.5t36.5 37.5t36.5 47q44 61 76 146
q-9 3 -19.5 8t-35.5 22.5t-43.5 39t-33.5 58.5t-16 79z" />
    <glyph glyph-name="uniE609" unicode="&#xe609;" 
d="M864 576q-26 0 -45 -19t-19 -45v-256q0 -26 19 -45t45 -19t45 19t19 45v256q0 26 -19 45t-45 19zM96 576q-26 0 -45 -19t-19 -45v-256q0 -26 19 -45t45 -19t45 19t19 45v256q0 26 -19 45t-45 19zM192 160q0 -40 28 -68t68 -28h32v-128q0 -26 19 -45t45 -19t45 19t19 45
v128h64v-128q0 -26 19 -45t45 -19t45 19t19 45v128h32q40 0 68 28t28 68v352h-576v-352zM599 806l40 78q4 7 -3 11t-11 -3l-41 -79q-50 19 -104 19t-104 -19l-41 79q-4 7 -11 3t-3 -11l40 -78q-68 -31 -113.5 -92.5t-53.5 -137.5h572q-8 76 -53.5 137.5t-113.5 92.5z
M352 626q-19 0 -32.5 13.5t-13.5 32.5t13.5 32.5t32.5 13.5t32.5 -13.5t13.5 -32.5t-13.5 -32.5t-32.5 -13.5zM608 626q-19 0 -32.5 13.5t-13.5 32.5t13.5 32.5t32.5 13.5t32.5 -13.5t13.5 -32.5t-13.5 -32.5t-32.5 -13.5z" />
    <glyph glyph-name="uniE60A" unicode="&#xe60a;" horiz-adv-x="1236" 
d="M970 133q24 -24 24 -60q0 -35 -24.5 -60t-59.5 -25q-36 0 -60 25l-251 251l-251 -251q-24 -25 -60 -25q-35 0 -60 25t-25 60q0 34 25 60l251 251l-251 251q-25 24 -25 60q0 35 25 60t60 25q34 0 60 -25l251 -251l251 251q24 25 60 25q35 0 59.5 -25t24.5 -60
q0 -36 -24 -60l-251 -251z" />
    <glyph glyph-name="uniE60B" unicode="&#xe60b;" 
d="M589 819v62h-155v-62h-326l62 -93h684l62 93h-327zM185 -113h653v777h-653v-777zM651 554h62v-559h-62v559zM481 554h62v-559h-62v559zM309 554h63v-559h-63v559z" />
    <glyph glyph-name="uniE60C" unicode="&#xe60c;" horiz-adv-x="1058" 
d="M526 -128q-104 0 -199 40.5t-163.5 109t-109 163.5t-40.5 199t40.5 199t109 163.5t163.5 109t199 40.5t199 -40.5t163.5 -109t109 -163.5t40.5 -199t-40.5 -199t-109 -163.5t-163.5 -109t-199 -40.5zM525.5 788q-109.5 0 -202 -54t-146.5 -147t-54 -202t54 -202t147 -147
t202 -54t202 54t147 147t54 202t-54 202t-147 147t-202.5 54zM275 439h501v-110h-501v110z" />
    <glyph glyph-name="uniE60D" unicode="&#xe60d;" horiz-adv-x="1054" 
d="M521 282q-16 0 -26 9.5t-10 23.5v242q0 13 11 22.5t25 9.5q16 0 26 -9.5t10 -22.5v-242q1 -14 -10 -23.5t-26 -9.5v0zM499 329q24 24 48 8l212 -176q11 -8 11 -22.5t-11 -25.5q-24 -24 -48 -8l-212 176q-8 9 -8 23t8 25v0zM558 754v69h84q14 0 23.5 11.5t9.5 25.5
q0 16 -9.5 26t-23.5 10h-241q-14 0 -23.5 -11t-9.5 -25q0 -17 9.5 -27t23.5 -10h84v-69q-112 -9 -205.5 -70t-147.5 -158.5t-54 -210.5q0 -90 35 -172t94.5 -141.5t141.5 -94.5t172 -35t172 35t141.5 94.5t94.5 141.5t35 172q-2 113 -55.5 210.5t-146 158.5t-204.5 70z
M521 -66q-103 0 -190.5 50.5t-139 138.5t-51.5 192t50.5 191.5t138.5 138t192 50.5t192 -50.5t138.5 -138t50.5 -191.5q0 -105 -51.5 -192.5t-139 -138t-190.5 -50.5z" />
    <glyph glyph-name="uniE60E" unicode="&#xe60e;" 
d="M728 588q-6 15 -21 22q-13 7 -27 5q-17 -3 -27 -17t-8 -31q3 -20 21 -30q64 -69 64 -164q0 -104 -76 -176q-15 -12 -15 -31q0 -17 12.5 -29t29.5 -12t29 12q13 8 18 21q83 92 83 215t-83 215zM871 738q-11 23 -37 23q-18 0 -30 -12t-12 -30q0 -23 20 -36
q54 -57 84.5 -130.5t30.5 -155.5q0 -91 -37.5 -172t-104.5 -140q-23 -11 -23 -37q0 -17 12.5 -29t29.5 -12q20 0 33 16q1 1 1 2q79 69 124.5 166t45.5 206q0 97 -36 185t-101 156zM430 809l-207 -211h-125q-81 0 -81 -81v-267q0 -38 20.5 -59t60.5 -21h125l207 -212
q29 -27 64 -29.5t60 22t25 69.5v728q0 44 -25 68.5t-60 22t-64 -29.5zM499 61q0 -16 -2.5 -24t-6 -10t-11 2.5t-12.5 9t-14 14.5q-6 6 -9 8q-60 60 -180 189h-113q-30 0 -41.5 11.5t-11.5 41.5v161q0 29 11.5 41t41.5 12h114q120 130 180 189l8 8l15 14q4 5 11.5 9.5t11 2
t6 -11t2.5 -24.5v-643z" />
    <glyph glyph-name="uniE60F" unicode="&#xe60f;" 
d="M872 397l127 -127q11 -11 11 -27t-11.5 -27.5t-27.5 -11.5t-27 12l-127 126l-126 -126q-12 -12 -28 -12t-27.5 11.5t-11.5 27.5t12 27l126 127l-126 127q-12 11 -12 27t11.5 27.5t27.5 11.5t28 -11l126 -127l127 127q11 11 27 11t27.5 -11.5t11.5 -27.5t-11 -27zM413 -27
l-200 204h-121q-38 0 -58 20.5t-20 57.5v259q0 77 78 77h121l200 205q28 26 62 28.5t58.5 -21.5t24.5 -67v-704q0 -43 -24.5 -66.5t-58.5 -21.5t-62 29zM480 694q0 16 -2.5 24t-6 10t-10.5 -2t-11 -8l-14 -14q-6 -6 -9 -8q-58 -57 -174 -182h-110q-28 0 -39.5 -12t-11.5 -40
v-156q0 -29 11 -40t40 -11h109q118 -126 175 -183q3 -2 8 -8q10 -9 14.5 -13.5t11.5 -9t10.5 -2.5t6 9.5t2.5 23.5v622z" />
    <glyph glyph-name="uniE610" unicode="&#xe610;" horiz-adv-x="1181" 
d="M717 387h75q19 0 32.5 -13.5t13.5 -31.5v-393q0 -19 -13.5 -32t-32.5 -13h-698q-19 0 -32.5 13t-13.5 32v393q0 18 13.5 31.5t32.5 13.5h75h548zM398 128v-88q0 -19 13 -32t32 -13t32.5 13t13.5 32v88q46 26 46 78q0 37 -26.5 64t-64.5 27t-64.5 -27t-26.5 -64
q-1 -25 11.5 -45.5t33.5 -32.5v0zM261 387h365h-365zM626 598zM668 368v224q0 72 50 122t120 50q74 0 122.5 -44t48.5 -112v-67q0 -20 14.5 -34.5t34.5 -14.5q21 0 35.5 14.5t14.5 34.5v67q0 109 -77.5 182.5t-192.5 73.5q-111 0 -190 -80q-79 -78 -79 -192v-224h99z" />
    <glyph glyph-name="uniE611" unicode="&#xe611;" horiz-adv-x="1044" 
d="M890 -128h-739q-20 0 -34.5 14t-14.5 34v416q0 20 14.5 34t34.5 14h80v224q0 119 84.5 203.5t205 84.5t205 -84.5t84.5 -203.5v-224h80q21 0 35 -14t14 -34v-416q0 -20 -14 -34t-35 -14zM472 109v-93q0 -20 14.5 -34t34.5 -14t34 14t14 34v93q22 13 35 34.5t13 48.5
q0 39 -28.5 67.5t-68.5 28.5t-68.5 -28.5t-28.5 -67.5q1 -27 14 -48.5t35 -34.5v0zM713 607q0 80 -56.5 136t-136 56t-136 -56t-56.5 -136v-224h385v224zM713 607z" />
    <glyph glyph-name="uniE612" unicode="&#xe612;" horiz-adv-x="1500" 
d="M728 720q-68 0 -135.5 -21.5t-120 -56t-100 -76t-81.5 -83.5t-59 -76.5t-38 -56.5l-12 -21q5 -8 13 -22t36.5 -54.5t60 -77.5t80.5 -82t100.5 -77.5t119.5 -54.5t136 -22q65 0 130.5 21.5t119 56t103 76t86 83t64 76t41.5 56.5l14 21q-5 9 -14.5 23t-41 54.5t-65 77
t-85 81.5t-103.5 77.5t-118 55t-131 22.5zM733 121q-87 0 -148.5 62t-61.5 149q0 88 61.5 149t148.5 61q88 0 149.5 -61.5t61.5 -148.5q-1 -88 -62.5 -149.5t-148.5 -61.5zM733 444q-47 0 -80.5 -33.5t-33.5 -81.5q0 -47 33.5 -80.5t80.5 -33.5q48 0 81.5 33.5t33.5 80.5
q-2 49 -35 82t-80 33z" />
    <glyph glyph-name="uniE613" unicode="&#xe613;" horiz-adv-x="1074" 
d="M25 384q0 -104 41 -199t109.5 -163.5t163 -109t198.5 -40.5t199 40.5t163.5 109t109 163.5t40.5 199t-40.5 199t-109 163.5t-163.5 109t-199 40.5q-105 0 -200 -41t-163 -109.5t-108.5 -163t-40.5 -198.5zM481 499h112v-397h-112v397zM481 668h112v-112h-112v112z" />
    <glyph glyph-name="uniE614" unicode="&#xe614;" horiz-adv-x="1082" 
d="M538.5 -128q-104.5 0 -199.5 40.5t-163.5 109t-109 163.5t-40.5 199t40.5 199t109 163.5t163.5 109t199.5 40.5t199 -40.5t163 -109t109 -163.5t40.5 -199t-40.5 -199t-109 -163.5t-163 -109t-199 -40.5zM538 782q-110 0 -202.5 -54t-146.5 -146.5t-54 -202.5t54 -203
t146.5 -147t202.5 -54t203 54t147 147t54 203t-54 202.5t-147 146.5t-203 54zM506 357h-197v65h197v196h70v-196h197v-65h-197v-196h-70v196z" />
    <glyph glyph-name="uniE615" unicode="&#xe615;" 
d="M264 721q60 56 144.5 87.5t180.5 31.5q115 0 213 -45t155 -122.5t57 -168.5q0 -102 -71 -186v7q0 43 -11 85q21 46 21 94q0 76 -48.5 140.5t-132.5 102t-183 37.5q-112 0 -204 -48q-62 -2 -121 -15v0zM447 671q-115 0 -213 -45t-155 -122t-57 -168q0 -120 95.5 -212.5
t243.5 -116.5l61 -79q9 -12 25 -12t24 12l62 79q148 24 243.5 116.5t95.5 212.5q0 91 -57 168t-155 122t-213 45zM234 294q-25 0 -42.5 16t-17.5 39.5t17.5 39.5t42.5 16t43 -16t18 -39t-18 -39.5t-43 -16.5zM447 294q-25 0 -43 16.5t-18 39.5t18 39t43 16t42.5 -16
t17.5 -39q1 -23 -17 -39.5t-43 -16.5zM659.5 294q-25.5 0 -43 16.5t-17.5 39.5t17.5 39t43 16t43 -16t17.5 -39t-17.5 -39.5t-43 -16.5z" />
    <glyph glyph-name="uniE616" unicode="&#xe616;" horiz-adv-x="1492" 
d="M718 -98q-21 0 -37 15l-255 231q-17 15 -18 37.5t14 40.5q14 16 36.5 17t40.5 -13l215 -197l355 389q14 16 37 17t40 -13q16 -15 17.5 -37.5t-13.5 -40.5l-392 -428q-19 -18 -40 -18z" />
    <glyph glyph-name="uniE617" unicode="&#xe617;" 
d="M512 -96q-97 0 -186 38t-153 102.5t-102 153t-38 186t38 186.5t102 153t153 102t186.5 38t186 -38t153 -102t102.5 -153t38 -186.5t-38 -186t-102.5 -153t-153 -102.5t-186.5 -38zM512 795q-111 0 -205.5 -55.5t-150 -150t-55.5 -206t55.5 -206t150 -149.5t206 -55
t206 55t149.5 149.5t55 206t-55 206t-149.5 150t-206.5 55.5zM512 795zM561 382l148 147q10 10 10 24t-10 24t-24 10t-24 -10l-149 -146l-146 146q-10 10 -24 10t-24 -10t-10 -24t10 -24l145 -146l-147 -146q-10 -10 -10 -24t10 -24.5t24 -10.5t25 10l147 146l148 -149
q10 -10 24.5 -10t24.5 10t10 24t-10 24zM561 382z" />
    <glyph glyph-name="uniE618" unicode="&#xe618;" 
d="M896 213h-768q-18 0 -30.5 12.5t-12.5 30.5v427q0 17 12.5 29.5t30.5 12.5h768q18 0 30.5 -12.5t12.5 -29.5v-427q0 -18 -12.5 -30.5t-30.5 -12.5zM853 640h-682v-341h682v341zM299 128h426q18 0 30.5 -12.5t12.5 -30t-12.5 -30t-30.5 -12.5h-426q-18 0 -30.5 12.5
t-12.5 30t12.5 30t30.5 12.5z" />
    <glyph glyph-name="uniE619" unicode="&#xe619;" horiz-adv-x="1135" 
d="M565 -161q-109 0 -208 42.5t-170.5 114t-114 170.5t-42.5 207.5t42.5 207.5t114 170.5t170.5 114t207.5 42.5t207.5 -42.5t171 -114t114 -170.5t42 -207.5t-42.5 -207.5t-114 -170.5t-170.5 -114t-207 -42.5zM564.5 874q-101.5 0 -194 -39.5t-159.5 -106.5t-106.5 -159.5
t-39.5 -194t39.5 -194t106.5 -159.5t159.5 -106.5t194 -39.5t194 39.5t159.5 106.5t106.5 159.5t39.5 194t-39.5 194t-106.5 159.5t-159.5 106.5t-194 39.5zM756 697h-383q-6 0 -11 -4.5t-5 -10.5v-616q0 -6 5 -11t11 -5h383q6 0 10.5 5t4.5 11v616q1 6 -3.5 10.5t-11.5 4.5
zM565 79q-21 0 -35 14t-14 34.5t14 35t34.5 14.5t35 -14.5t14.5 -34.5t-14.5 -34.5t-34.5 -14.5zM716 225q0 -6 -4.5 -11t-10.5 -5h-280q-7 0 -11.5 5t-4.5 11v401q0 7 4.5 11.5t11.5 4.5h280q6 0 10.5 -5t4.5 -11v-401z" />
    <glyph glyph-name="uniE61A" unicode="&#xe61a;" horiz-adv-x="1135" 
d="M558 -162q-108 0 -206 42t-169 113t-113 169t-42 206t42 206t113 169t169 113t206 42t206 -42t169 -113t113 -169t42 -206t-42 -206t-113 -169t-169 -113t-206 -42zM558 865q-101 0 -193 -39t-158.5 -105.5t-105.5 -158.5t-39 -193t39 -193t105.5 -158.5t158.5 -105.5
t193 -39t193 39t158.5 105.5t105.5 158.5t39 193t-39.5 193t-106 158.5t-158 105.5t-192.5 39zM263 428h-23v-236q0 -14 10 -24.5t25 -10.5h564q15 0 25 10.5t10 24.5v236h-611zM311 321h141v-23h-141v23zM546 227h-236v24h236v-24zM804 251q0 -10 -6.5 -16.5t-16.5 -6.5
h-47q-10 0 -17 6.5t-7 16.5v1q0 10 7 16.5t17 6.5h47q10 0 16.5 -6.5t6.5 -16.5v-1zM804 251zM840 580h-564q-15 0 -25 -10t-10 -25v-46h635v46q-1 15 -11 25t-25 10zM840 580z" />
    <glyph glyph-name="uniE61B" unicode="&#xe61b;" 
d="M607.5 396.5q-24.5 18.5 -64.5 18.5h-83v-147h83q41 0 65 20q24 21 24 53v1q0 36 -24.5 54.5zM844 514q-34 36 -77 69q-9 7 -10 8q37 12 59.5 40t22.5 63q0 47 -38.5 79.5t-92.5 32.5q-25 0 -46 -8q-8 -3 -15 -7q-6 -3 -9 2q-10 15 -26 28q-36 32 -80 32t-81 -32
q-16 -14 -25 -28q-5 -5 -9 -3q-7 4 -16 8q-21 8 -45 8q-54 0 -93 -32.5t-39 -79.5q0 -30 17 -55t45 -40l-12 -9q-40 -30 -76 -68q-114 -120 -114 -255q0 -96 34 -171t94 -122t137.5 -71t167.5 -24q162 0 275 66q167 99 167 322q-1 127 -115 247zM704 342q0 -33 -12 -60
q-13 -25 -35 -43q-22 -17 -52 -27q-32 -9 -64 -9h-81v-131h-71v407h161q35 0 64 -9q28 -10 49 -28.5t30 -42.5q11 -25 11 -56v-1z" />
    <glyph glyph-name="uniE61C" unicode="&#xe61c;" 
d="M905 302l-328 -377q-27 -31 -65 -31t-65 31l-328 377q-33 38 -26 91q3 25 22.5 42t45.5 17h212v351q0 29 20.5 49.5t49.5 20.5h140q29 0 49.5 -20.5t20.5 -49.5v-351h209q26 0 45 -17t23 -42q8 -53 -25 -91z" />
    <glyph glyph-name="uniE61D" unicode="&#xe61d;" 
d="M512 -148q-109 0 -206 51l-160 -29v169q-82 115 -82 257q0 91 35.5 174t95.5 143t143 95.5t174 35.5t174 -35.5t143 -95.5t95.5 -143t35.5 -174t-35.5 -174t-95.5 -143t-143 -95.5t-174 -35.5zM512 683q-104 0 -192.5 -51t-139.5 -139.5t-51 -192.5q0 -128 76 -230v-119
l98 28q95 -62 209 -62q104 0 192.5 51t139.5 139.5t51 192.5t-51 192.5t-139.5 139.5t-192.5 51zM722 74q7 6 11 13.5t6 14.5t3 14.5t0.5 14t-2 12.5t-3 10.5t-3 8t-2.5 5.5l-1 2q-51 58 -171 79q1 1 1 2v39q25 15 25 44q5 22 7 46l1 48q0 28 -22 49t-64.5 21t-64.5 -21
t-22 -49q-2 -23 0 -48l8 -46q0 -29 25 -44v-39v-2v-1q-117 -21 -168 -78q-1 -2 -2.5 -6t-5 -15.5t-3.5 -22.5t4.5 -25.5t15.5 -25.5q4 -4 10 -10.5t26.5 -22.5t43.5 -28t59.5 -22.5t74.5 -10.5t74 10t60.5 23.5t43 27.5t27 23t8.5 10zM248 196l4 4q48 55 144 82
q-12 20 -14 45q-6 26 -8 48q-2 27 0 55q2 53 45 87q-3 18 -19 31.5t-45 13.5q-32 0 -48 -16t-16 -36q-2 -18 0 -37l6 -34q0 -22 18 -33v-29q0 -1 1 -1v-1q-86 -16 -124 -57v-18q0 -82 39 -153q4 25 15 45zM831 317q-38 43 -127 58v2v29q19 11 19 33q4 17 5 34l1 37
q0 20 -16.5 36t-48.5 16q-30 0 -46.5 -15t-17.5 -34q40 -34 40 -84q1 -32 -1 -54q-2 -23 -7 -48q-1 -24 -14 -45q99 -27 148 -82l3 -4l3 -4q11 -20 15 -44q16 26 29 54q15 47 15 98v17z" />
    <glyph glyph-name="uniE61E" unicode="&#xe61e;" 
d="M289 188q40 0 70.5 26.5t37.5 66.5h297v-56q0 -8 6 -14t14.5 -6t14.5 6t6 14v56h59v-88q0 -9 6 -15t14.5 -6t14.5 6t6 15v108q0 9 -6 15t-15 6h-416q-7 41 -37.5 68.5t-71.5 27.5q-45 0 -77.5 -34t-32.5 -81.5t32.5 -81t77.5 -33.5zM289.5 377q28.5 0 48.5 -22t20 -52.5
t-20 -52t-48.5 -21.5t-49 21.5t-20.5 52t20.5 52.5t49 22z" />
    <glyph glyph-name="uniE61F" unicode="&#xe61f;" horiz-adv-x="1025" 
d="M513 -212q-104 0 -198.5 40.5t-163 109t-109 163.5t-40 198.5t41 198t108.5 163t163 109t198.5 40.5t198.5 -40.5t163.5 -109t109 -163t39.5 -198.5q0 -105 -40.5 -199.5t-109 -162.5t-163 -108.5t-198.5 -40.5zM92 299.5q0 -114.5 56.5 -211.5t153.5 -153.5t211 -56.5
t211 56.5t154 153.5t57 211t-56.5 211t-153.5 153.5t-211 56.5q-115 0 -212 -56t-153.5 -153t-56.5 -211.5zM178 421h531v61q101 -99 137 -137h-668v76zM180 254h669v-76h-531v-63q-92 93 -138 139z" />
  </font>
</defs>
</svg>
